<?xml version="1.0" encoding="UTF-8" standalone="no"?>
<!--
  ~ Copyright 2015-2017 Hayai Software
  ~ Copyright 2018 The KeikaiLauncher Project
  ~
  ~ Licensed under the Apache License, Version 2.0 (the "License"); you may not use this file except
  ~ in compliance with the License. You may obtain a copy of the License at
  ~
  ~ http://www.apache.org/licenses/LICENSE-2.0
  ~
  ~ Unless required by applicable law or agreed to in writing, software distributed under the
  ~ License is distributed on an "AS IS" BASIS, WITHOUT WARRANTIES OR CONDITIONS OF ANY KIND
  ~ either express or implied. See the License for the specific language governing permissions and
  ~ limitations under the License.
  -->

<svg
   xmlns:dc="http://purl.org/dc/elements/1.1/"
   xmlns:cc="http://creativecommons.org/ns#"
   xmlns:rdf="http://www.w3.org/1999/02/22-rdf-syntax-ns#"
   xmlns:svg="http://www.w3.org/2000/svg"
   xmlns="http://www.w3.org/2000/svg"
   xmlns:sodipodi="http://sodipodi.sourceforge.net/DTD/sodipodi-0.dtd"
   xmlns:inkscape="http://www.inkscape.org/namespaces/inkscape"
   style="enable-background:new"
   height="24"
   version="1.1"
   viewBox="0 0 24 24"
   width="24">
  <metadata
     id="metadata2">
    <rdf:RDF>
      <cc:Work
         rdf:about="">
        <dc:format>image/svg+xml</dc:format>
        <dc:type
           rdf:resource="http://purl.org/dc/dcmitype/StillImage" />
        <dc:title />
      </cc:Work>
    </rdf:RDF>
  </metadata>
  <path
     style="opacity:1;fill:#ffffff;fill-opacity:1;stroke:none;stroke-width:4.11666155;stroke-linecap:round;stroke-linejoin:round;stroke-miterlimit:4;stroke-dasharray:none;stroke-opacity:1;paint-order:markers stroke fill"
     d="m 12,0.5499998 c -0.496831,0.0496831 -2.8441234,2.6391268 -3.5,4.5 C 7.6405174,7.4885502 7.7809886,8.5763218 8,10.749219 8.1703529,12.439356 9.7346009,15.439914 8.2636719,15.839062 7.4116253,16.070271 5.3067752,18.729093 5,20.55 h 3.5 c 0,-2.262845 2,-2.287594 2,0 h 1.5 1.5 c 0,-2.287594 2,-2.262845 2,0 H 19 C 18.693225,18.729093 16.588374,16.070271 15.736328,15.839062 14.265399,15.439914 15.829647,12.439356 16,10.749219 16.219011,8.5763218 16.359483,7.4885502 15.5,5.0499998 14.844123,3.1891266 12.496831,0.5996829 12,0.5499998 Z"
     id="path25"
     inkscape:connector-curvature="0"
     sodipodi:nodetypes="cssscccccccsssc" />
  <path
     sodipodi:type="spiral"
     style="fill:none;fill-rule:evenodd;stroke:#ffffff;stroke-width:1px;stroke-linecap:butt;stroke-linejoin:miter;stroke-opacity:1"
     id="path947"
     sodipodi:cx="19.96875"
     sodipodi:cy="17.15625"
     sodipodi:expansion="1"
     sodipodi:revolution="2"
     sodipodi:radius="5.5428023"
     sodipodi:argument="-20.939499"
     sodipodi:t0="0"
     d="m 19.96875,17.15625 c -0.206821,-0.361937 0.385845,-0.457357 0.601562,-0.34375 0.584581,0.307868 0.46724,1.132188 0.08594,1.546875 -0.682058,0.741776 -1.869222,0.526696 -2.492188,-0.171874 -0.914227,-1.025179 -0.590856,-2.617316 0.429686,-3.4375 1.360221,-1.093177 3.369476,-0.657197 4.382813,0.687497 1.27518,1.692161 0.724701,4.123609 -0.94531,5.328126 -2.022607,1.458832 -4.878858,0.792886 -6.273438,-1.203122 -1.643465,-2.352225 -0.861499,-5.634805 1.460933,-7.218751"
     transform="matrix(-0.28937138,-0.12857353,-0.12857353,0.28937138,14.373589,19.446078)" />
  <path
     transform="matrix(0.28937138,-0.12857353,0.12857353,0.28937138,2.4673692,19.446078)"
     d="m 19.96875,17.15625 c -0.206821,-0.361937 0.385845,-0.457357 0.601562,-0.34375 0.584581,0.307868 0.46724,1.132188 0.08594,1.546875 -0.682058,0.741776 -1.869222,0.526696 -2.492188,-0.171874 -0.914227,-1.025179 -0.590856,-2.617316 0.429686,-3.4375 1.360221,-1.093177 3.369476,-0.657197 4.382813,0.687497 1.27518,1.692161 0.724701,4.123609 -0.94531,5.328126 -2.022607,1.458832 -4.878858,0.792886 -6.273438,-1.203122 -1.643465,-2.352225 -0.861499,-5.634805 1.460933,-7.218751"
     sodipodi:t0="0"
     sodipodi:argument="-20.939499"
     sodipodi:radius="5.5428023"
     sodipodi:revolution="2"
     sodipodi:expansion="1"
     sodipodi:cy="17.15625"
     sodipodi:cx="19.96875"
     id="path949"
     style="fill:none;fill-rule:evenodd;stroke:#ffffff;stroke-width:1px;stroke-linecap:butt;stroke-linejoin:miter;stroke-opacity:1"
     sodipodi:type="spiral" />
  <path
     transform="matrix(0.28936477,-0.12857365,0.1285706,0.28937163,9.6266249,19.446074)"
     d="m 19.96875,17.15625 c -0.206821,-0.361937 0.385845,-0.457357 0.601562,-0.34375 0.584581,0.307868 0.46724,1.132188 0.08594,1.546875 -0.682058,0.741776 -1.869222,0.526696 -2.492188,-0.171874 -0.914227,-1.025179 -0.590856,-2.617316 0.429686,-3.4375 1.360221,-1.093177 3.369476,-0.657197 4.382813,0.687497 1.27518,1.692161 0.724701,4.123609 -0.94531,5.328126 -2.022607,1.458832 -4.878858,0.792886 -6.273438,-1.203122 -1.643465,-2.352225 -0.861499,-5.634805 1.460933,-7.218751"
     sodipodi:t0="0"
     sodipodi:argument="-20.939499"
     sodipodi:radius="5.5428023"
     sodipodi:revolution="2"
     sodipodi:expansion="1"
     sodipodi:cy="17.15625"
     sodipodi:cx="19.96875"
     id="path964"
     style="fill:none;fill-rule:evenodd;stroke:#ffffff;stroke-width:1px;stroke-linecap:butt;stroke-linejoin:miter;stroke-opacity:1"
     sodipodi:type="spiral" />
  <path
     sodipodi:type="spiral"
     style="fill:none;fill-rule:evenodd;stroke:#ffffff;stroke-width:1px;stroke-linecap:butt;stroke-linejoin:miter;stroke-opacity:1"
     id="path966"
     sodipodi:cx="19.96875"
     sodipodi:cy="17.15625"
     sodipodi:expansion="1"
     sodipodi:revolution="2"
     sodipodi:radius="5.5428023"
     sodipodi:argument="-20.939499"
     sodipodi:t0="0"
     d="m 19.96875,17.15625 c -0.206821,-0.361937 0.385845,-0.457357 0.601562,-0.34375 0.584581,0.307868 0.46724,1.132188 0.08594,1.546875 -0.682058,0.741776 -1.869222,0.526696 -2.492188,-0.171874 -0.914227,-1.025179 -0.590856,-2.617316 0.429686,-3.4375 1.360221,-1.093177 3.369476,-0.657197 4.382813,0.687497 1.27518,1.692161 0.724701,4.123609 -0.94531,5.328126 -2.022607,1.458832 -4.878858,0.792886 -6.273438,-1.203122 -1.643465,-2.352225 -0.861499,-5.634805 1.460933,-7.218751"
     transform="matrix(-0.28936477,-0.12857365,-0.1285706,0.28937163,21.679986,19.446074)" />
</svg>
